<svg width="271" height="542" viewBox="0 0 271 542" fill="none" xmlns="http://www.w3.org/2000/svg">
<path d="M271 -1.18458e-05C199.126 -8.70409e-06 130.196 28.5517 79.374 79.3741C28.5517 130.196 -9.56117e-06 199.126 -1.18458e-05 271C-1.41304e-05 342.874 28.5517 411.804 79.374 462.626C130.196 513.448 199.126 542 271 542L271 502.033C209.726 502.033 150.962 477.692 107.635 434.365C64.3078 391.038 39.9669 332.274 39.9669 271C39.9669 209.726 64.3079 150.962 107.635 107.635C150.962 64.3079 209.726 39.9669 271 39.9669L271 -1.18458e-05Z" fill="#A55F5F"/>
</svg>
