<svg width="428" height="183" viewBox="0 0 428 183" fill="none" xmlns="http://www.w3.org/2000/svg">
<path d="M649.845 25.2007C623.808 49.6667 539.415 84.5512 410.141 28.3603C248.548 -41.8783 316.31 124.614 79.9654 32.7125C-156.38 -59.1891 -53.1041 151.424 -228.267 47.0379" stroke="#69640F" stroke-width="14"/>
<path d="M654.786 58.2287C628.753 82.9009 544.366 118.074 415.081 61.3884C253.475 -9.46858 321.268 158.454 84.9058 65.7405C-151.456 -26.973 -48.143 185.452 -223.325 80.1537" stroke="#69640F" stroke-width="14"/>
<path d="M655.472 91.4492C629.435 115.915 545.042 150.8 415.768 94.6088C254.174 24.3703 321.937 190.863 85.592 98.961C-150.753 7.0594 -47.4775 217.673 -222.641 113.286" stroke="#69640F" stroke-width="14"/>
<path d="M656.151 124.318C630.114 148.784 545.721 183.668 416.447 127.477C254.853 57.2389 322.616 223.731 86.271 131.83C-150.074 39.928 -46.7985 250.541 -221.962 146.155" stroke="#69640F" stroke-width="14"/>
</svg>
